<svg xmlns="http://www.w3.org/2000/svg" viewBox="0 0 520 210" role="img" aria-label="Green hills and bridge">
  <rect width="520" height="210" fill="#f5faf4"/>
  <path d="M0 151c84-58 165-83 243-75 84 8 161 52 277 36v98H0z" fill="#cfe1d2"/>
  <path d="M0 176c87-48 154-64 202-49 48 14 92 44 139 42 48-1 104-33 179-74v115H0z" fill="#8caf8d"/>
  <path d="M0 193c76-28 145-32 207-12 67 22 118 21 155-1 34-20 86-29 158-28v58H0z" fill="#4f835f"/>
  <path d="M134 141c62-42 121-42 176 0" fill="none" stroke="#d9e8da" stroke-width="12" stroke-linecap="round"/>
  <path d="M152 140c49-28 96-28 140 0" fill="none" stroke="#3f7655" stroke-width="7" stroke-linecap="round"/>
  <path d="M92 157h274" stroke="#eaf3ea" stroke-width="8" stroke-linecap="round"/>
  <circle cx="414" cy="64" r="22" fill="#dfead9"/>
  <path d="M407 73c-20 18-41 30-64 36" stroke="#a8bd9f" stroke-width="5" fill="none" stroke-linecap="round"/>
</svg>
